<svg id="Layer_1" data-name="Layer 1" xmlns="http://www.w3.org/2000/svg" xmlns:xlink="http://www.w3.org/1999/xlink" viewBox="0 0 1920 1080"><defs><style>.cls-1{fill:url(#linear-gradient);}</style><linearGradient id="linear-gradient" x1="595.96" y1="336.63" x2="569.13" y2="662.81" gradientUnits="userSpaceOnUse"><stop offset="0" stop-color="#2bbdd1"/><stop offset="1" stop-color="#2b17bf"/></linearGradient></defs><path class="cls-1" d="M651.8,465.86q-30.31-31.56-73.6-33-44.73-1.8-76.84,30.49t-32.1,77.37q0,43.29,29.82,74.67t72.22,32.83l.58,0h54.85V621.51H571.88a73.36,73.36,0,0,1-43.56-16.33h98.41V591.36H514.53A82.19,82.19,0,0,1,504.19,575H626.73V561.21H499.18a80.31,80.31,0,0,1-2.41-16.33h130V531.06H497.09q2.7-28,23.08-48.38,23.15-23.13,56.05-23.13,31.46,0,53.88,23.13t23.14,55.68c0,1.36,0,2.7,0,4V648.23h27.41V540.35Q682.08,497.42,651.8,465.86Z"/><path d="M825.65,618.44q-13.87,11.87-33,11.86a56.27,56.27,0,1,1,0-112.54q19.09,0,33,11.86v-5.83h19.89V624.27H825.65Zm0-49Q824,555.34,815,546.5a30.62,30.62,0,0,0-22.3-8.84,36.37,36.37,0,1,0,0,72.74,30.62,30.62,0,0,0,22.3-8.84q9-8.84,10.66-22.91Z"/><path d="M871.06,624.27V463.5h20.09V624.27Z"/><path d="M922.7,624.27V543.89H911.65v-20.1H922.7V463.5h20.1v60.29h19.29v20.1H942.8v80.38Z"/><path d="M993,593.72q1.82,8.25,6.54,12.46a16.13,16.13,0,0,0,11.15,4.22,15.77,15.77,0,0,0,15.67-15.67,14.82,14.82,0,0,0-2.41-8.44,11.8,11.8,0,0,0-4.82-4,80.27,80.27,0,0,0-11-3.62q-5.83-1.6-9-2.71a33,33,0,0,1-7.23-3.92,23.26,23.26,0,0,1-6.73-7,30.32,30.32,0,0,1-4.83-16.88,30.36,30.36,0,0,1,49.54-23.52,29.7,29.7,0,0,1,10.55,17.29l-19.29,4a11.19,11.19,0,0,0-3.92-5.93,10.24,10.24,0,0,0-6.53-2.31,10.28,10.28,0,0,0-10.45,10.45,11.47,11.47,0,0,0,1.61,5.82q1.8,2.82,11.45,5.63c3.62.94,6.36,1.71,8.24,2.31a55.79,55.79,0,0,1,6.83,2.82,28.42,28.42,0,0,1,6.93,4.52,32.4,32.4,0,0,1,5.33,6.23,35.74,35.74,0,0,1-4.72,44.41,34.15,34.15,0,0,1-25.22,10.45,34.64,34.64,0,0,1-24-8.95q-9.94-8.94-12.15-23.81Z"/><path d="M1071,624.27V543.89h-11v-20.1h11V463.5h20.1v60.29h19.29v20.1H1091.1v80.38Z"/><path d="M1208.26,618.44q-13.87,11.87-33,11.86a56.27,56.27,0,1,1,0-112.54q19.1,0,33,11.86v-5.83h19.89V624.27h-19.89Zm0-49q-1.62-14.07-10.66-22.91a30.62,30.62,0,0,0-22.3-8.84,36.37,36.37,0,1,0,0,72.74,30.62,30.62,0,0,0,22.3-8.84q9-8.84,10.66-22.91Z"/><path d="M1343.5,613.82q-16.49,16.47-40,16.48a56.27,56.27,0,0,1,0-112.54q23.52,0,40,16.48l-14.07,14.07a36.37,36.37,0,1,0,0,51.44Z"/><path d="M1417.24,523.79h32l-60.09,49.64L1450,624.27h-31.75l-39.39-32.76v32.76h-20.1V463.5h20.1v92Z"/></svg>