<svg id="Layer_1" data-name="Layer 1" xmlns="http://www.w3.org/2000/svg" xmlns:xlink="http://www.w3.org/1999/xlink" viewBox="0 0 1920 1080"><defs><style>.cls-1{fill:url(#linear-gradient);}</style><linearGradient id="linear-gradient" x1="1013.76" y1="17.46" x2="944.97" y2="853.54" gradientUnits="userSpaceOnUse"><stop offset="0" stop-color="#2bbdd1"/><stop offset="1" stop-color="#2b17bf"/></linearGradient></defs><path class="cls-1" d="M1156.88,348.69q-77.69-80.88-188.66-84.6-114.65-4.62-197,78.14T689,540.55q0,111,76.43,191.4t185.13,84.17l1.49,0h140.58V747.67H952Q889,744.78,840.37,705.81h252.25V670.39H805a210.82,210.82,0,0,1-26.5-41.86h314.1V593.11H765.67a206.78,206.78,0,0,1-6.16-41.87h333.11V515.83H760.33q6.9-71.72,59.17-124,59.31-59.31,143.66-59.31,80.61,0,138.09,59.31t59.32,142.73q.09,5.21,0,10.32V816.15h70.28V539.63Q1234.49,429.6,1156.88,348.69Z"/></svg>