<svg id="Layer_1" data-name="Layer 1" xmlns="http://www.w3.org/2000/svg" xmlns:xlink="http://www.w3.org/1999/xlink" viewBox="0 0 1920 1080"><defs><style>.cls-1{fill:url(#linear-gradient);}.cls-2{fill:#fff;}</style><linearGradient id="linear-gradient" x1="596.33" y1="336.14" x2="569.5" y2="662.32" gradientUnits="userSpaceOnUse"><stop offset="0" stop-color="#2bbdd1"/><stop offset="1" stop-color="#2b17bf"/></linearGradient></defs><path class="cls-1" d="M652.17,465.36q-30.31-31.55-73.6-33-44.73-1.8-76.84,30.48t-32.1,77.37q0,43.31,29.82,74.68t72.22,32.83H627.1V621H572.25a73.36,73.36,0,0,1-43.56-16.33H627.1V590.87H514.9a82.19,82.19,0,0,1-10.34-16.33H627.1V560.72H499.55a80.31,80.31,0,0,1-2.41-16.33h130V530.57H497.46q2.7-28,23.08-48.38,23.15-23.13,56.05-23.14,31.45,0,53.88,23.14t23.14,55.68c0,1.36,0,2.7,0,4V647.73H681V539.86Q682.45,496.93,652.17,465.36Z"/><path class="cls-2" d="M826,618q-13.86,11.85-33,11.86a56.27,56.27,0,1,1,0-112.54q19.1,0,33,11.86V523.3h19.9V623.78H826Zm0-49q-1.6-14.07-10.65-22.91a30.63,30.63,0,0,0-22.3-8.85,36.38,36.38,0,1,0,0,72.75,30.66,30.66,0,0,0,22.3-8.84q9-8.85,10.65-22.91Z"/><path class="cls-2" d="M871.43,623.78V463h20.09V623.78Z"/><path class="cls-2" d="M923.07,623.78V543.39H912V523.3h11.05V463h20.1V523.3h19.29v20.09H943.17v80.39Z"/><path class="cls-2" d="M993.4,593.23q1.82,8.24,6.54,12.46a16.18,16.18,0,0,0,11.15,4.22,15.77,15.77,0,0,0,15.67-15.67,14.82,14.82,0,0,0-2.41-8.44,11.65,11.65,0,0,0-4.82-4,80.27,80.27,0,0,0-11-3.62c-3.89-1.07-6.87-2-9-2.71a33.45,33.45,0,0,1-7.23-3.92,23.18,23.18,0,0,1-6.73-7,30.28,30.28,0,0,1-4.83-16.88,30.36,30.36,0,0,1,49.54-23.51,29.7,29.7,0,0,1,10.55,17.29l-19.29,4a11.21,11.21,0,0,0-3.92-5.92,10.25,10.25,0,0,0-6.53-2.32,10.3,10.3,0,0,0-10.45,10.45,11.51,11.51,0,0,0,1.61,5.83q1.8,2.82,11.45,5.63c3.62.94,6.36,1.71,8.24,2.31a57.84,57.84,0,0,1,6.83,2.81,29,29,0,0,1,6.93,4.52,32.7,32.7,0,0,1,5.33,6.23,35.76,35.76,0,0,1-4.72,44.42,34.18,34.18,0,0,1-25.22,10.45,34.64,34.64,0,0,1-24-8.95q-9.95-8.94-12.15-23.81Z"/><path class="cls-2" d="M1071.37,623.78V543.39h-11V523.3h11V463h20.1V523.3h19.29v20.09h-19.29v80.39Z"/><path class="cls-2" d="M1208.63,618q-13.87,11.85-33,11.86a56.27,56.27,0,1,1,0-112.54q19.1,0,33,11.86V523.3h19.89V623.78h-19.89Zm0-49Q1207,554.85,1198,546a30.63,30.63,0,0,0-22.3-8.85,36.38,36.38,0,1,0,0,72.75,30.66,30.66,0,0,0,22.3-8.84q9-8.85,10.66-22.91Z"/><path class="cls-2" d="M1343.87,613.33q-16.48,16.47-40,16.48a56.27,56.27,0,0,1,0-112.54q23.52,0,40,16.48l-14.07,14.07a36.37,36.37,0,1,0,0,51.44Z"/><path class="cls-2" d="M1417.61,523.3h32l-60.09,49.64,60.89,50.84h-31.75L1379.23,591v32.76h-20.1V463h20.1v92Z"/></svg>